<svg id="Capa_1" data-name="Capa 1" xmlns="http://www.w3.org/2000/svg" viewBox="0 0 1104.32 388.5"><defs><style>.cls-1{fill:none;stroke-miterlimit:10;stroke-width:3px;}.cls-1,.cls-2,.cls-3{stroke:#444242;}.cls-2,.cls-4{fill:#444242;}.cls-3{font-size:89.51px;fill:#cb6120;font-family:Corbel, Corbel;letter-spacing:0.26em;}.cls-4{letter-spacing:0.26em;}.cls-5{fill:#70a83b;}</style></defs><title>logo13</title><polyline class="cls-1" points="714.66 50.78 1.5 50.78 1.5 338.94 1102.82 338.94 1102.82 50.78 935.71 50.78"/><path class="cls-2" d="M434.45,384.59v1.9a10.77,10.77,0,0,0-3.95.8,4.9,4.9,0,0,0-2.4,2.8,23.34,23.34,0,0,0-1.2,6.3q-.34,4.2-.35,11.3a44.23,44.23,0,0,1-1.2,11.2,20.52,20.52,0,0,1-3.35,7.3,16.05,16.05,0,0,1-4.9,4.35,24.5,24.5,0,0,1-5.75,2.35,24.5,24.5,0,0,1,5.75,2.35,16.05,16.05,0,0,1,4.9,4.35,20.52,20.52,0,0,1,3.35,7.3,44.23,44.23,0,0,1,1.2,11.2q0,7.4.35,11.7a24.51,24.51,0,0,0,1.2,6.45,4.71,4.71,0,0,0,2.4,2.8,10.38,10.38,0,0,0,3.95.65v1.9a22.87,22.87,0,0,1-10.45-2,11.83,11.83,0,0,1-5.65-7.15q-1.69-5.1-1.7-14.3a122.34,122.34,0,0,0-.65-14.55q-.64-5.15-2.25-7.35a5.92,5.92,0,0,0-4.7-2.4h-.5V432h.5a6,6,0,0,0,4.7-2.35q1.61-2.14,2.25-7.35a123.75,123.75,0,0,0,.65-14.6q0-8.81,1.7-13.85a12,12,0,0,1,5.65-7.15Q428,384.59,434.45,384.59Z" transform="translate(-146.18 -237.59)"/><path class="cls-2" d="M559.15,392c-.26,2.67-.45,5.25-.55,7.75s-.15,4.42-.15,5.75c0,1.6,0,3.08.1,4.45s.14,2.58.2,3.65h-2.3a56.79,56.79,0,0,0-2.2-11.4,10.55,10.55,0,0,0-4.5-6.05c-2.06-1.23-5.1-1.85-9.1-1.85h-4.9v56.9a17.1,17.1,0,0,0,.8,6,4.56,4.56,0,0,0,3,2.7,26.2,26.2,0,0,0,6.4.9v2c-1.73-.13-4-.22-6.8-.25s-5.66-.05-8.6-.05-6,0-8.75.05-5,.12-6.65.25v-2a26.53,26.53,0,0,0,6.5-.9,4.37,4.37,0,0,0,3-2.7,18.08,18.08,0,0,0,.75-6v-56.9h-4.8q-6,0-9.1,1.85a10.63,10.63,0,0,0-4.5,6.05,61.9,61.9,0,0,0-2.3,11.4h-2.3a34.16,34.16,0,0,0,.25-3.65c0-1.37,0-2.85,0-4.45,0-1.33,0-3.25-.15-5.75s-.28-5.08-.55-7.75l9.35.2q5.05.1,10.1.1h18.45c3.34,0,6.7,0,10.1-.1S556.42,392.06,559.15,392Z" transform="translate(-146.18 -237.59)"/><path class="cls-2" d="M605.15,409.89q8.8,0,13.75,5.3t5,16.7H589l-.1-1.9h24.9a33.69,33.69,0,0,0-.75-9.05,15.88,15.88,0,0,0-3-6.65,6.57,6.57,0,0,0-5.35-2.5q-4.39,0-7.75,4.55t-4,14.65l.3.4a30.55,30.55,0,0,0-.25,3.15c0,1.17,0,2.32,0,3.45a28.33,28.33,0,0,0,2.15,11.6,17.3,17.3,0,0,0,5.6,7.25,12.23,12.23,0,0,0,7.15,2.45,16.79,16.79,0,0,0,5.45-.9,14,14,0,0,0,4.95-3,17.86,17.86,0,0,0,4-5.7l2,.7a20.83,20.83,0,0,1-3.65,6.6,19.72,19.72,0,0,1-6.35,5.2,18.88,18.88,0,0,1-8.9,2,22.74,22.74,0,0,1-12.35-3.25,21.47,21.47,0,0,1-7.95-9.1,31.39,31.39,0,0,1-2.8-13.65,36.56,36.56,0,0,1,2.9-15.25,22.28,22.28,0,0,1,8.05-9.7A21.64,21.64,0,0,1,605.15,409.89Z" transform="translate(-146.18 -237.59)"/><path class="cls-2" d="M676.35,409.89a25.06,25.06,0,0,1,6.35.8,18,18,0,0,1,5.35,2.3,10.9,10.9,0,0,1,3.65,3.55A8.34,8.34,0,0,1,693,421a5.51,5.51,0,0,1-5.8,6,6.27,6.27,0,0,1-4.1-1.4,4.9,4.9,0,0,1-1.7-4,5.79,5.79,0,0,1,1.35-3.95,5.88,5.88,0,0,1,3.25-1.95,7.26,7.26,0,0,0-3.4-2.8,12.15,12.15,0,0,0-5.1-1.1,10.92,10.92,0,0,0-5.1,1.3,13.08,13.08,0,0,0-4.5,4.1,23.43,23.43,0,0,0-3.25,7.5,45,45,0,0,0-1.25,11.4q0,8.6,2,13.7T670.6,457a12.57,12.57,0,0,0,7,2.15,15.67,15.67,0,0,0,5.05-.9,14.23,14.23,0,0,0,5-3.1,18.11,18.11,0,0,0,4.1-5.9l1.9.7a22.62,22.62,0,0,1-3.35,6.6,18.8,18.8,0,0,1-6.1,5.45,18.37,18.37,0,0,1-9.25,2.15A20.84,20.84,0,0,1,663.8,461a22.2,22.2,0,0,1-8-9.1,31.58,31.58,0,0,1-3-14.35,33.29,33.29,0,0,1,3-14.55,23.17,23.17,0,0,1,8.35-9.7A22.11,22.11,0,0,1,676.35,409.89Z" transform="translate(-146.18 -237.59)"/><path class="cls-2" d="M736.45,384.49v36.9q2.61-6.5,7.15-9a19.88,19.88,0,0,1,9.75-2.5,17.76,17.76,0,0,1,6.45,1,10.69,10.69,0,0,1,4.15,2.8,11.27,11.27,0,0,1,2.7,5,32.35,32.35,0,0,1,.8,8.1v26.7q0,4.2,1.7,5.7t5.7,1.5v2.1c-1.13-.07-2.9-.15-5.3-.25s-4.7-.15-6.9-.15-4.48.05-6.65.15-3.78.18-4.85.25v-2.1c2.34,0,4-.5,5-1.5s1.45-2.9,1.45-5.7v-29.3a27.56,27.56,0,0,0-.5-5.45,6.9,6.9,0,0,0-2.2-3.95,7.5,7.5,0,0,0-5.1-1.5,11.57,11.57,0,0,0-6.9,2.15,14.27,14.27,0,0,0-4.7,6,21.8,21.8,0,0,0-1.7,8.85v23.2c0,2.8.49,4.7,1.45,5.7s2.62,1.5,5,1.5v2.1c-1.06-.07-2.68-.15-4.85-.25s-4.35-.15-6.55-.15-4.6.05-7,.15-4.16.18-5.3.25v-2.1q4,0,5.7-1.5c1.14-1,1.7-2.9,1.7-5.7v-57c0-3-.51-5.22-1.55-6.65s-3-2.15-5.85-2.15v-2.1c2.14.2,4.2.3,6.2.3a48.25,48.25,0,0,0,5.9-.35A32.52,32.52,0,0,0,736.45,384.49Z" transform="translate(-146.18 -237.59)"/><path class="cls-2" d="M826.75,392v2a17.25,17.25,0,0,0-5.15.75,3.58,3.58,0,0,0-2.3,2.4,19.56,19.56,0,0,0-.55,5.45v49.6a18.2,18.2,0,0,0,.6,5.4,3.61,3.61,0,0,0,2.3,2.4,19.62,19.62,0,0,0,5.1.8v2c-1.6-.13-3.58-.22-6-.25s-4.75-.05-7.15-.05c-2.73,0-5.27,0-7.6.05s-4.23.12-5.7.25v-2a20,20,0,0,0,5-.8,3.6,3.6,0,0,0,2.35-2.4,18.2,18.2,0,0,0,.6-5.4v-49.6a18.13,18.13,0,0,0-.6-5.45,3.72,3.72,0,0,0-2.35-2.4,16.88,16.88,0,0,0-5-.75v-2c1.47.07,3.37.13,5.7.2s4.87.1,7.6.1q3.6,0,7.15-.1C823.17,392.12,825.15,392.06,826.75,392Z" transform="translate(-146.18 -237.59)"/><path class="cls-2" d="M883.85,391.59l24.3,62.8c1,2.53,2.13,4.22,3.4,5.05a7.38,7.38,0,0,0,3.4,1.35v2c-1.4-.13-3.13-.22-5.2-.25s-4.13-.05-6.2-.05c-2.67,0-5.18,0-7.55.05s-4.25.12-5.65.25v-2c3.4-.13,5.57-.72,6.5-1.75s.73-3.25-.6-6.65l-18.4-49.2,1.7-1.5L862.45,446a27.3,27.3,0,0,0-2,7.1,8.15,8.15,0,0,0,.55,4.55,4.87,4.87,0,0,0,3,2.35,18.18,18.18,0,0,0,5.1.8v2c-1.93-.13-3.9-.22-5.9-.25s-3.9-.05-5.7-.05-3.08,0-4.25.05a31.39,31.39,0,0,0-3.25.25v-2a9.77,9.77,0,0,0,4.1-2.4q2.1-1.9,3.9-6.6l23.4-60.2h2.5Zm11.3,42.4v2h-29.8l1-2Z" transform="translate(-146.18 -237.59)"/><path class="cls-2" d="M981.35,384.59q6.69,0,10.6,2.1a12,12,0,0,1,5.6,7.15q1.69,5.06,1.7,13.85a123.75,123.75,0,0,0,.65,14.6q.65,5.2,2.3,7.35a6.07,6.07,0,0,0,4.65,2.35h.5v1.8h-.5a6,6,0,0,0-4.65,2.4q-1.65,2.21-2.3,7.35a122.34,122.34,0,0,0-.65,14.55q0,9.2-1.7,14.3a11.87,11.87,0,0,1-5.6,7.15q-3.9,2-10.6,2v-1.9a10.38,10.38,0,0,0,3.95-.65,4.71,4.71,0,0,0,2.4-2.8,24.51,24.51,0,0,0,1.2-6.45q.35-4.31.35-11.7a42.26,42.26,0,0,1,1.25-11.2,21.07,21.07,0,0,1,3.4-7.3,16.05,16.05,0,0,1,4.9-4.35,24.5,24.5,0,0,1,5.75-2.35,24.5,24.5,0,0,1-5.75-2.35,16.05,16.05,0,0,1-4.9-4.35,21.07,21.07,0,0,1-3.4-7.3,42.26,42.26,0,0,1-1.25-11.2q0-7.1-.35-11.3a23.34,23.34,0,0,0-1.2-6.3,4.9,4.9,0,0,0-2.4-2.8,10.77,10.77,0,0,0-3.95-.8Z" transform="translate(-146.18 -237.59)"/><path class="cls-2" d="M234.92,598.71q5.46,0,8.11,2.68t2.66,7.7a11.94,11.94,0,0,1-1.31,5.71,9.17,9.17,0,0,1-3.78,3.8,12.25,12.25,0,0,1-5.95,1.35l-1.22,0-1.56,0h-3.63c-.71,0-1.27,0-1.69.08v-.6a6,6,0,0,0,1.51-.24,1.09,1.09,0,0,0,.71-.72,5.46,5.46,0,0,0,.18-1.62V601.89a5.48,5.48,0,0,0-.18-1.64,1.13,1.13,0,0,0-.71-.72,5,5,0,0,0-1.51-.22v-.6l1.69.07c.71,0,1.42,0,2.12,0l2.37-.06Zm-.63.54a2.33,2.33,0,0,0-1.8.51,3.5,3.5,0,0,0-.42,2.07v15a3.41,3.41,0,0,0,.43,2.07,2.4,2.4,0,0,0,1.82.51,8.62,8.62,0,0,0,4.89-1.19,6.25,6.25,0,0,0,2.44-3.46,19,19,0,0,0,.71-5.55,16.93,16.93,0,0,0-.78-5.57,6.16,6.16,0,0,0-2.54-3.3A8.91,8.91,0,0,0,234.29,599.25Z" transform="translate(-146.18 -237.59)"/><path class="cls-2" d="M256.7,620.16a4.46,4.46,0,0,1-2.13-.48,3.29,3.29,0,0,1-1.37-1.32,3.9,3.9,0,0,1-.46-1.92,3.56,3.56,0,0,1,.61-2.16,4.6,4.6,0,0,1,1.58-1.35,11.84,11.84,0,0,1,2-.84l2-.65a5.89,5.89,0,0,0,1.57-.75,1.32,1.32,0,0,0,.62-1.12v-1.92a3.86,3.86,0,0,0-.36-1.85,1.9,1.9,0,0,0-1-.88,3.79,3.79,0,0,0-1.39-.24,6.53,6.53,0,0,0-1.53.19,2.37,2.37,0,0,0-1.32.83,1.92,1.92,0,0,1,1.05.64,1.87,1.87,0,0,1,.42,1.25,1.63,1.63,0,0,1-.51,1.27,1.84,1.84,0,0,1-1.29.47,1.57,1.57,0,0,1-1.34-.59,2.12,2.12,0,0,1-.43-1.3,2.06,2.06,0,0,1,.39-1.31,4.16,4.16,0,0,1,1-.91,6.79,6.79,0,0,1,1.83-.81,8.73,8.73,0,0,1,2.49-.33,7.33,7.33,0,0,1,2.17.28,3.83,3.83,0,0,1,1.52.86,3.46,3.46,0,0,1,1,1.74,11,11,0,0,1,.24,2.49v8.31a2,2,0,0,0,.21,1.06.74.74,0,0,0,.66.32,1.39,1.39,0,0,0,.63-.15,4.41,4.41,0,0,0,.69-.45l.33.51a8.32,8.32,0,0,1-1.25.79,3.5,3.5,0,0,1-1.6.32,3.27,3.27,0,0,1-1.49-.3,1.92,1.92,0,0,1-.87-.89,3.29,3.29,0,0,1-.28-1.45,5.47,5.47,0,0,1-1.89,2A4.89,4.89,0,0,1,256.7,620.16Zm1.26-1.32a3.06,3.06,0,0,0,1.72-.53,5.07,5.07,0,0,0,1.46-1.57V610.8a2.85,2.85,0,0,1-1,.85c-.43.23-.9.47-1.41.71a13.08,13.08,0,0,0-1.47.81,3.38,3.38,0,0,0-1.6,3.09,2.7,2.7,0,0,0,.63,1.89A2.16,2.16,0,0,0,258,618.84Z" transform="translate(-146.18 -237.59)"/><path class="cls-2" d="M281.51,604.08a2.89,2.89,0,0,1,1.44.34,2.68,2.68,0,0,1,.94.89,2.19,2.19,0,0,1,.35,1.2,2.08,2.08,0,0,1-.5,1.39,1.67,1.67,0,0,1-1.33.59,1.77,1.77,0,0,1-1.19-.42,1.48,1.48,0,0,1-.49-1.2,1.73,1.73,0,0,1,.31-1,2.72,2.72,0,0,1,.74-.7.77.77,0,0,0-.66-.24,2.89,2.89,0,0,0-1.61.55,4.55,4.55,0,0,0-1.24,1.34,6.9,6.9,0,0,0-.8,1.72,5.83,5.83,0,0,0-.28,1.73v6.63a2.08,2.08,0,0,0,.84,2,4.46,4.46,0,0,0,2.28.5V620l-1.95-.08c-.84,0-1.74,0-2.7,0-.7,0-1.4,0-2.09,0L272,620v-.63a2.61,2.61,0,0,0,1.71-.45,2.28,2.28,0,0,0,.51-1.71v-9.39a3.45,3.45,0,0,0-.47-2,2,2,0,0,0-1.75-.64v-.63q1,.09,1.86.09a14.54,14.54,0,0,0,1.78-.11,9.23,9.23,0,0,0,1.55-.31v3.57a7.81,7.81,0,0,1,.94-1.7,5.47,5.47,0,0,1,1.47-1.41A3.44,3.44,0,0,1,281.51,604.08Z" transform="translate(-146.18 -237.59)"/><path class="cls-2" d="M295.15,604.17v13a2.2,2.2,0,0,0,.52,1.71,2.54,2.54,0,0,0,1.71.45V620l-1.57-.08c-.7,0-1.41,0-2.12,0s-1.41,0-2.12,0L290,620v-.63a2.58,2.58,0,0,0,1.71-.45,2.24,2.24,0,0,0,.52-1.71v-9.39a3.45,3.45,0,0,0-.47-2,2,2,0,0,0-1.76-.64v-.63c.64.06,1.27.09,1.87.09a14.67,14.67,0,0,0,1.78-.11A9.1,9.1,0,0,0,295.15,604.17Zm-1.67-7.23a2,2,0,0,1,1.46.58,2,2,0,0,1,0,2.82,2.13,2.13,0,0,1-2.94,0,2,2,0,0,1,0-2.82A2,2,0,0,1,293.48,596.94Z" transform="translate(-146.18 -237.59)"/><path class="cls-2" d="M313.64,604.08a5.32,5.32,0,0,1,1.93.3,3.57,3.57,0,0,1,1.28.84,3.7,3.7,0,0,1,.78,1.5,9.8,9.8,0,0,1,.24,2.43v8a2.2,2.2,0,0,0,.51,1.71,2.55,2.55,0,0,0,1.7.45V620l-1.57-.08c-.71,0-1.41,0-2.08,0s-1.35,0-2,0L313,620v-.63a2,2,0,0,0,1.48-.45,2.49,2.49,0,0,0,.44-1.71v-8.79a8.25,8.25,0,0,0-.15-1.64,2.12,2.12,0,0,0-.65-1.18,2.25,2.25,0,0,0-1.54-.45,3.33,3.33,0,0,0-2.07.67,4.5,4.5,0,0,0-1.41,1.85,6.3,6.3,0,0,0-.52,2.61v6.93a2.49,2.49,0,0,0,.44,1.71,2,2,0,0,0,1.49.45V620l-1.45-.08c-.64,0-1.3,0-2,0s-1.37,0-2.08,0l-1.6.08v-.63a2.56,2.56,0,0,0,1.7-.45,2.24,2.24,0,0,0,.52-1.71v-9.39a3.45,3.45,0,0,0-.47-2,2,2,0,0,0-1.75-.64v-.63q1,.09,1.86.09a14.67,14.67,0,0,0,1.78-.11,9.1,9.1,0,0,0,1.54-.31v3.39a5.13,5.13,0,0,1,2.17-2.72A5.91,5.91,0,0,1,313.64,604.08Z" transform="translate(-146.18 -237.59)"/><path class="cls-2" d="M331.19,625.59a13.29,13.29,0,0,1-3.06-.33,5.61,5.61,0,0,1-2.27-1,2.14,2.14,0,0,1-.85-1.74,2.3,2.3,0,0,1,.84-1.79,5.81,5.81,0,0,1,2.31-1.15l.21.48a2,2,0,0,0-1,.88,2.52,2.52,0,0,0-.36,1.34,2.29,2.29,0,0,0,1.26,2.1,6.49,6.49,0,0,0,3.27.72,9.84,9.84,0,0,0,2.61-.35,4.51,4.51,0,0,0,2.05-1.14,2.81,2.81,0,0,0,.8-2.08,2.12,2.12,0,0,0-.69-1.61,4.24,4.24,0,0,0-2.77-.64h-2.15a10.77,10.77,0,0,1-1.91-.17,2.94,2.94,0,0,1-1.47-.66,1.87,1.87,0,0,1-.55-1.48,2.88,2.88,0,0,1,.87-2,9.13,9.13,0,0,1,3.06-1.9l.36.24a11.49,11.49,0,0,0-1.67,1.05,1.57,1.57,0,0,0-.71,1.26c0,.64.47,1,1.42,1h3.66a7.77,7.77,0,0,1,2.42.36,3.84,3.84,0,0,1,1.79,1.15,3.12,3.12,0,0,1,.67,2.09,4.42,4.42,0,0,1-.89,2.67,6.35,6.35,0,0,1-2.72,2A11.63,11.63,0,0,1,331.19,625.59Zm.18-12a7.25,7.25,0,0,1-2.75-.5,4.12,4.12,0,0,1-1.92-1.54,5.56,5.56,0,0,1,0-5.4,4.14,4.14,0,0,1,1.92-1.55,7.93,7.93,0,0,1,5.49,0,4.14,4.14,0,0,1,1.92,1.55,5.49,5.49,0,0,1,0,5.4,4.12,4.12,0,0,1-1.92,1.54A7.19,7.19,0,0,1,331.37,613.56Zm0-.54a2,2,0,0,0,1.69-.9,9.09,9.09,0,0,0,0-6.6,2,2,0,0,0-3.37,0,9,9,0,0,0,0,6.6A1.94,1.94,0,0,0,331.37,613Zm4.38-6.45-.57-.21a4.59,4.59,0,0,1,1.45-1.83,3.42,3.42,0,0,1,2.14-.78,1.79,1.79,0,0,1,1.29.45,1.72,1.72,0,0,1,.48,1.32,1.58,1.58,0,0,1-.49,1.32,1.63,1.63,0,0,1-1,.39,1.31,1.31,0,0,1-.86-.33,1.44,1.44,0,0,1-.45-1,3.94,3.94,0,0,1,.42-1.8l.36.12a4.91,4.91,0,0,0-1.77,1A5.56,5.56,0,0,0,335.75,606.57Z" transform="translate(-146.18 -237.59)"/><path class="cls-2" d="M368,604.08a5.18,5.18,0,0,1,1.86.3,3.44,3.44,0,0,1,1.29.84,3.33,3.33,0,0,1,.75,1.54,11.32,11.32,0,0,1,.21,2.39v8a2.24,2.24,0,0,0,.51,1.71,2.52,2.52,0,0,0,1.68.45V620l-1.56-.08c-.7,0-1.39,0-2.07,0s-1.31,0-2,0l-1.46.08v-.63a2,2,0,0,0,1.47-.45,2.56,2.56,0,0,0,.42-1.71v-8.79a10.26,10.26,0,0,0-.12-1.64,2.09,2.09,0,0,0-.57-1.18,2,2,0,0,0-1.47-.45,3.14,3.14,0,0,0-2,.67,4.62,4.62,0,0,0-1.38,1.85,6.47,6.47,0,0,0-.51,2.61v6.93a2.49,2.49,0,0,0,.44,1.71,2,2,0,0,0,1.45.45V620l-1.42-.08c-.63,0-1.29,0-2,0s-1.37,0-2.08,0l-1.61.08v-.63a2.58,2.58,0,0,0,1.71-.45,2.24,2.24,0,0,0,.51-1.71v-9.39a3.46,3.46,0,0,0-.46-2,2,2,0,0,0-1.76-.64v-.63q1,.09,1.86.09a14.71,14.71,0,0,0,1.79-.11,9.1,9.1,0,0,0,1.54-.31v3.39a5.13,5.13,0,0,1,4.89-3.48Zm9,0a5.18,5.18,0,0,1,1.86.3,3.44,3.44,0,0,1,1.29.84,3.33,3.33,0,0,1,.75,1.54,11.32,11.32,0,0,1,.21,2.39v8a2.24,2.24,0,0,0,.51,1.71,2.58,2.58,0,0,0,1.71.45V620l-1.57-.08c-.71,0-1.41,0-2.09,0s-1.31,0-2,0l-1.46.08v-.63a2,2,0,0,0,1.47-.45,2.56,2.56,0,0,0,.42-1.71v-8.79a10.26,10.26,0,0,0-.12-1.64,2,2,0,0,0-.58-1.18,2.09,2.09,0,0,0-1.49-.45,3.14,3.14,0,0,0-2,.67,4.62,4.62,0,0,0-1.38,1.83,6.38,6.38,0,0,0-.51,2.6l-.09-2.61a5.14,5.14,0,0,1,2.18-2.78A5.88,5.88,0,0,1,377.05,604.08Z" transform="translate(-146.18 -237.59)"/><path class="cls-2" d="M394.36,604.17v13a2.24,2.24,0,0,0,.51,1.71,2.58,2.58,0,0,0,1.71.45V620l-1.56-.08c-.7,0-1.41,0-2.13,0s-1.4,0-2.11,0l-1.61.08v-.63a2.58,2.58,0,0,0,1.71-.45,2.24,2.24,0,0,0,.51-1.71v-9.39a3.46,3.46,0,0,0-.46-2,2,2,0,0,0-1.76-.64v-.63q1,.09,1.86.09a14.71,14.71,0,0,0,1.79-.11A9.1,9.1,0,0,0,394.36,604.17Zm-1.68-7.23a2,2,0,0,1,1.47.58,2,2,0,0,1,0,2.82,2.13,2.13,0,0,1-2.94,0,2,2,0,0,1,0-2.82A2,2,0,0,1,392.68,596.94Z" transform="translate(-146.18 -237.59)"/><path class="cls-2" d="M412.84,604.08a5.38,5.38,0,0,1,1.94.3,3.44,3.44,0,0,1,1.27.84,3.58,3.58,0,0,1,.78,1.5,9.8,9.8,0,0,1,.24,2.43v8a2.24,2.24,0,0,0,.51,1.71,2.58,2.58,0,0,0,1.71.45V620l-1.57-.08c-.71,0-1.41,0-2.09,0s-1.34,0-2,0l-1.47.08v-.63a2,2,0,0,0,1.49-.45,2.5,2.5,0,0,0,.43-1.71v-8.79a8.25,8.25,0,0,0-.15-1.64,2.1,2.1,0,0,0-.64-1.18,2.26,2.26,0,0,0-1.55-.45,3.35,3.35,0,0,0-2.07.67,4.5,4.5,0,0,0-1.41,1.85,6.47,6.47,0,0,0-.51,2.61v6.93a2.49,2.49,0,0,0,.44,1.71,2,2,0,0,0,1.48.45V620l-1.44-.08c-.64,0-1.3,0-2,0s-1.37,0-2.08,0l-1.61.08v-.63a2.58,2.58,0,0,0,1.71-.45,2.24,2.24,0,0,0,.51-1.71v-9.39a3.46,3.46,0,0,0-.46-2,2,2,0,0,0-1.76-.64v-.63q1,.09,1.86.09a14.71,14.71,0,0,0,1.79-.11,9.1,9.1,0,0,0,1.54-.31v3.39a5.12,5.12,0,0,1,2.16-2.72A5.91,5.91,0,0,1,412.84,604.08Z" transform="translate(-146.18 -237.59)"/><path class="cls-2" d="M432.4,604.08a5.24,5.24,0,0,1,2.45.58,3.15,3.15,0,0,1,1.54,2.06l-.39.3a3.18,3.18,0,0,0-1.26-1.7,3.6,3.6,0,0,0-1.95-.52,3.34,3.34,0,0,0-2.88,1.81,10.69,10.69,0,0,0-1.11,5.63,15.06,15.06,0,0,0,.45,4,4.89,4.89,0,0,0,1.32,2.37,3,3,0,0,0,4.32-.26,4.85,4.85,0,0,0,1.17-3l.33.51a5.61,5.61,0,0,1-1.47,3.34,4.33,4.33,0,0,1-3.18,1.16,5.8,5.8,0,0,1-3.22-.9,5.71,5.71,0,0,1-2.15-2.7,11.94,11.94,0,0,1-.75-4.56,9.82,9.82,0,0,1,.93-4.53A6.46,6.46,0,0,1,429,605,6.57,6.57,0,0,1,432.4,604.08Zm6.51-7.65v20.25a3.25,3.25,0,0,0,.5,2,2,2,0,0,0,1.72.65V620q-.93-.09-1.86-.09a16.63,16.63,0,0,0-1.77.09,7.42,7.42,0,0,0-1.56.33V600a3.46,3.46,0,0,0-.46-2,2,2,0,0,0-1.76-.64v-.63q1,.09,1.86.09a14.71,14.71,0,0,0,1.79-.11A9.1,9.1,0,0,0,438.91,596.43Z" transform="translate(-146.18 -237.59)"/><path class="cls-2" d="M452.56,604.08a5.18,5.18,0,0,1,3.33,1.08q1,.78,1.2-1h.69c0,.56-.07,1.22-.09,2s0,1.82,0,3.14H457a8.9,8.9,0,0,0-.58-2.18,4.25,4.25,0,0,0-1.28-1.74,3.34,3.34,0,0,0-2.16-.67,2.6,2.6,0,0,0-1.71.57,2.05,2.05,0,0,0-.69,1.68,2.32,2.32,0,0,0,.54,1.54,6.39,6.39,0,0,0,1.41,1.22l1.86,1.23a22.65,22.65,0,0,1,2,1.47,6.38,6.38,0,0,1,1.45,1.65,4.06,4.06,0,0,1,.54,2.13,3.66,3.66,0,0,1-.72,2.29,4.52,4.52,0,0,1-1.9,1.44,7,7,0,0,1-3.9.38,6,6,0,0,1-1.13-.33,4.53,4.53,0,0,1-.64-.36l-.62-.42a.37.37,0,0,0-.54,0,2,2,0,0,0-.36,1h-.69q.06-1,.09-2.34t0-3.66h.69a15.82,15.82,0,0,0,.62,2.92,4.14,4.14,0,0,0,1.24,1.95,3.44,3.44,0,0,0,2.28.71,3,3,0,0,0,1.19-.26,2.29,2.29,0,0,0,1-.85,3.13,3.13,0,0,0-.54-3.77,18.78,18.78,0,0,0-2.39-1.78c-.7-.48-1.36-1-2-1.43a6.58,6.58,0,0,1-1.51-1.57,3.71,3.71,0,0,1,1.72-5.6A6.2,6.2,0,0,1,452.56,604.08Z" transform="translate(-146.18 -237.59)"/><path class="cls-2" d="M468.07,616.41a2.12,2.12,0,0,1,1.11.27,2.16,2.16,0,0,1,.72.69,2.69,2.69,0,0,1,.44,1.06,5.81,5.81,0,0,1,.1,1,5,5,0,0,1-.75,2.68,5.29,5.29,0,0,1-2.37,2l-.27-.54a4.14,4.14,0,0,0,1.61-1.22,2.61,2.61,0,0,0,.67-1.66,2.24,2.24,0,0,0-.06-.75,1.79,1.79,0,0,1-1.23.45,2,2,0,0,1-1.39-.53,1.85,1.85,0,0,1-.59-1.45,1.89,1.89,0,0,1,.59-1.43A2,2,0,0,1,468.07,616.41Z" transform="translate(-146.18 -237.59)"/><path class="cls-2" d="M494.83,604.08a5.18,5.18,0,0,1,3.33,1.08q1,.78,1.2-1h.69c0,.56-.07,1.22-.09,2s0,1.82,0,3.14h-.69a8.9,8.9,0,0,0-.58-2.18,4.25,4.25,0,0,0-1.28-1.74,3.34,3.34,0,0,0-2.16-.67,2.6,2.6,0,0,0-1.71.57,2.05,2.05,0,0,0-.69,1.68,2.32,2.32,0,0,0,.54,1.54,6.39,6.39,0,0,0,1.41,1.22l1.86,1.23a22.65,22.65,0,0,1,2,1.47,6.38,6.38,0,0,1,1.45,1.65,4.06,4.06,0,0,1,.54,2.13,3.66,3.66,0,0,1-.72,2.29,4.52,4.52,0,0,1-1.9,1.44,7,7,0,0,1-3.9.38,6,6,0,0,1-1.13-.33,4.53,4.53,0,0,1-.64-.36l-.62-.42a.37.37,0,0,0-.54,0,2,2,0,0,0-.36,1h-.69q.06-1,.09-2.34t0-3.66H491a15.82,15.82,0,0,0,.62,2.92,4.14,4.14,0,0,0,1.24,1.95,3.44,3.44,0,0,0,2.28.71,3,3,0,0,0,1.19-.26,2.29,2.29,0,0,0,1-.85,3.13,3.13,0,0,0-.54-3.77,18.78,18.78,0,0,0-2.39-1.78c-.7-.48-1.36-1-2-1.43a6.58,6.58,0,0,1-1.51-1.57,3.71,3.71,0,0,1,1.72-5.6A6.2,6.2,0,0,1,494.83,604.08Z" transform="translate(-146.18 -237.59)"/><path class="cls-2" d="M511.6,620.16a4.46,4.46,0,0,1-2.13-.48,3.27,3.27,0,0,1-1.36-1.32,3.9,3.9,0,0,1-.47-1.92,3.57,3.57,0,0,1,.62-2.16,4.57,4.57,0,0,1,1.57-1.35,11.84,11.84,0,0,1,2-.84l2-.65a6,6,0,0,0,1.58-.75,1.31,1.31,0,0,0,.61-1.12v-1.92a3.86,3.86,0,0,0-.36-1.85,1.88,1.88,0,0,0-1-.88,3.84,3.84,0,0,0-1.4-.24,6.53,6.53,0,0,0-1.53.19,2.37,2.37,0,0,0-1.32.83,1.92,1.92,0,0,1,1.05.64,1.87,1.87,0,0,1,.42,1.25,1.63,1.63,0,0,1-.51,1.27,1.84,1.84,0,0,1-1.29.47,1.55,1.55,0,0,1-1.33-.59,2.13,2.13,0,0,1-.44-1.3,2.06,2.06,0,0,1,.39-1.31,4.35,4.35,0,0,1,1-.91,6.79,6.79,0,0,1,1.83-.81,8.73,8.73,0,0,1,2.49-.33,7.4,7.4,0,0,1,2.18.28,3.79,3.79,0,0,1,1.51.86,3.46,3.46,0,0,1,1,1.74,11,11,0,0,1,.24,2.49v8.31a2,2,0,0,0,.21,1.06.74.74,0,0,0,.66.32,1.39,1.39,0,0,0,.63-.15,4.41,4.41,0,0,0,.69-.45l.33.51a8.25,8.25,0,0,1-1.24.79,3.54,3.54,0,0,1-1.61.32,3.22,3.22,0,0,1-1.48-.3,1.92,1.92,0,0,1-.87-.89,3.28,3.28,0,0,1-.29-1.45,5.47,5.47,0,0,1-1.89,2A4.89,4.89,0,0,1,511.6,620.16Zm1.26-1.32a3.09,3.09,0,0,0,1.73-.53,5,5,0,0,0,1.45-1.57V610.8a2.81,2.81,0,0,1-1,.85c-.43.23-.9.47-1.41.71a13.08,13.08,0,0,0-1.47.81,3.36,3.36,0,0,0-1.61,3.09,2.7,2.7,0,0,0,.63,1.89A2.16,2.16,0,0,0,512.86,618.84Z" transform="translate(-146.18 -237.59)"/><path class="cls-2" d="M540.58,604.5v.6a1.8,1.8,0,0,0-1.06.52,4.26,4.26,0,0,0-.92,1.64l-4.83,12.81H533l-5.49-13.26a2.9,2.9,0,0,0-.94-1.43,1.73,1.73,0,0,0-.8-.25v-.63l1.37.07c.47,0,1,0,1.54,0l2,0c.69,0,1.33-.05,1.93-.09v.63a8.33,8.33,0,0,0-1.29.09.88.88,0,0,0-.75.54,2.55,2.55,0,0,0,.24,1.59l3.72,9.27-.21.18,3.24-8.55a4,4,0,0,0,.35-1.77,1.27,1.27,0,0,0-.6-1,3.47,3.47,0,0,0-1.61-.39v-.6l.95,0,.81,0,.82,0q.69,0,1.26,0Z" transform="translate(-146.18 -237.59)"/><path class="cls-2" d="M550,620.16a4.46,4.46,0,0,1-2.13-.48,3.27,3.27,0,0,1-1.36-1.32,3.9,3.9,0,0,1-.47-1.92,3.57,3.57,0,0,1,.62-2.16,4.57,4.57,0,0,1,1.57-1.35,11.84,11.84,0,0,1,2-.84l2-.65a6,6,0,0,0,1.58-.75,1.31,1.31,0,0,0,.61-1.12v-1.92a3.86,3.86,0,0,0-.36-1.85,1.88,1.88,0,0,0-1-.88,3.84,3.84,0,0,0-1.4-.24,6.53,6.53,0,0,0-1.53.19,2.37,2.37,0,0,0-1.32.83,1.92,1.92,0,0,1,1,.64,1.87,1.87,0,0,1,.42,1.25,1.63,1.63,0,0,1-.51,1.27,1.84,1.84,0,0,1-1.29.47,1.55,1.55,0,0,1-1.33-.59,2.13,2.13,0,0,1-.44-1.3,2.06,2.06,0,0,1,.39-1.31,4.35,4.35,0,0,1,1-.91,6.79,6.79,0,0,1,1.83-.81,8.73,8.73,0,0,1,2.49-.33,7.4,7.4,0,0,1,2.18.28,3.79,3.79,0,0,1,1.51.86,3.46,3.46,0,0,1,1,1.74,11,11,0,0,1,.24,2.49v8.31a2,2,0,0,0,.21,1.06.74.74,0,0,0,.66.32,1.39,1.39,0,0,0,.63-.15,4.41,4.41,0,0,0,.69-.45l.33.51a8.25,8.25,0,0,1-1.24.79,3.54,3.54,0,0,1-1.61.32,3.22,3.22,0,0,1-1.48-.3,1.92,1.92,0,0,1-.87-.89,3.28,3.28,0,0,1-.29-1.45,5.47,5.47,0,0,1-1.89,2A4.89,4.89,0,0,1,550,620.16Zm1.26-1.32a3.09,3.09,0,0,0,1.73-.53,5,5,0,0,0,1.45-1.57V610.8a2.81,2.81,0,0,1-1,.85c-.43.23-.9.47-1.41.71a13.08,13.08,0,0,0-1.47.81,3.36,3.36,0,0,0-1.61,3.09,2.7,2.7,0,0,0,.63,1.89A2.16,2.16,0,0,0,551.26,618.84Z" transform="translate(-146.18 -237.59)"/><path class="cls-2" d="M570.88,625.59a13.42,13.42,0,0,1-3.06-.33,5.57,5.57,0,0,1-2.26-1,2.15,2.15,0,0,1-.86-1.74,2.3,2.3,0,0,1,.84-1.79,6,6,0,0,1,2.31-1.15l.21.48a2,2,0,0,0-1,.88,2.61,2.61,0,0,0-.36,1.34,2.29,2.29,0,0,0,1.26,2.1,6.55,6.55,0,0,0,3.27.72,9.84,9.84,0,0,0,2.61-.35,4.55,4.55,0,0,0,2.06-1.14,2.8,2.8,0,0,0,.79-2.08,2.12,2.12,0,0,0-.69-1.61,4.21,4.21,0,0,0-2.76-.64h-2.16a10.66,10.66,0,0,1-1.9-.17,2.94,2.94,0,0,1-1.47-.66,1.88,1.88,0,0,1-.56-1.48,2.93,2.93,0,0,1,.87-2,9.35,9.35,0,0,1,3.06-1.9l.36.24a11.92,11.92,0,0,0-1.66,1.05,1.57,1.57,0,0,0-.71,1.26q0,1,1.41,1h3.66a7.84,7.84,0,0,1,2.43.36,3.84,3.84,0,0,1,1.79,1.15,3.12,3.12,0,0,1,.67,2.09,4.43,4.43,0,0,1-.9,2.67,6.25,6.25,0,0,1-2.71,2A11.68,11.68,0,0,1,570.88,625.59Zm.18-12a7.19,7.19,0,0,1-2.74-.5,4.12,4.12,0,0,1-1.92-1.54,5.49,5.49,0,0,1,0-5.4,4.14,4.14,0,0,1,1.92-1.55,7.93,7.93,0,0,1,5.49,0,4.14,4.14,0,0,1,1.92,1.55,5.56,5.56,0,0,1,0,5.4,4.12,4.12,0,0,1-1.92,1.54A7.25,7.25,0,0,1,571.06,613.56Zm0-.54a2,2,0,0,0,1.7-.9,9.23,9.23,0,0,0,0-6.6,2,2,0,0,0-3.38,0,9,9,0,0,0,0,6.6A2,2,0,0,0,571.06,613Zm4.38-6.45-.57-.21a4.62,4.62,0,0,1,1.46-1.83,3.42,3.42,0,0,1,2.14-.78,1.81,1.81,0,0,1,1.29.45,1.72,1.72,0,0,1,.48,1.32,1.58,1.58,0,0,1-.49,1.32,1.63,1.63,0,0,1-1,.39,1.31,1.31,0,0,1-.87-.33,1.44,1.44,0,0,1-.45-1,3.94,3.94,0,0,1,.42-1.8l.36.12a4.91,4.91,0,0,0-1.77,1A5.83,5.83,0,0,0,575.44,606.57Z" transform="translate(-146.18 -237.59)"/><path class="cls-2" d="M592.81,604.08a5.38,5.38,0,0,1,4.13,1.59q1.48,1.59,1.48,5H588l0-.57h7.47a10.32,10.32,0,0,0-.22-2.72,4.77,4.77,0,0,0-.9-2,2,2,0,0,0-1.61-.75,2.86,2.86,0,0,0-2.32,1.36,8.57,8.57,0,0,0-1.22,4.4l.09.12a8.42,8.42,0,0,0-.07.94c0,.35,0,.7,0,1a8.48,8.48,0,0,0,.65,3.48,5.16,5.16,0,0,0,1.68,2.17,3.65,3.65,0,0,0,2.14.74,5.08,5.08,0,0,0,1.64-.27,4.18,4.18,0,0,0,1.48-.9,5.41,5.41,0,0,0,1.2-1.71l.6.21a6.27,6.27,0,0,1-1.09,2,6,6,0,0,1-1.91,1.56,5.65,5.65,0,0,1-2.67.6,6.78,6.78,0,0,1-3.7-1,6.43,6.43,0,0,1-2.39-2.73,9.36,9.36,0,0,1-.84-4.09,11,11,0,0,1,.87-4.58,6.67,6.67,0,0,1,2.42-2.91A6.46,6.46,0,0,1,592.81,604.08Z" transform="translate(-146.18 -237.59)"/><path class="cls-2" d="M622.45,604.08a5.18,5.18,0,0,1,3.33,1.08q1,.78,1.2-1h.69c0,.56-.07,1.22-.09,2s0,1.82,0,3.14h-.69a8.9,8.9,0,0,0-.58-2.18,4.25,4.25,0,0,0-1.28-1.74,3.34,3.34,0,0,0-2.16-.67,2.6,2.6,0,0,0-1.71.57,2.05,2.05,0,0,0-.69,1.68,2.32,2.32,0,0,0,.54,1.54,6.39,6.39,0,0,0,1.41,1.22l1.86,1.23a22.65,22.65,0,0,1,2,1.47,6.38,6.38,0,0,1,1.45,1.65,4.06,4.06,0,0,1,.54,2.13,3.66,3.66,0,0,1-.72,2.29,4.52,4.52,0,0,1-1.9,1.44,7,7,0,0,1-3.9.38,6,6,0,0,1-1.13-.33,4.53,4.53,0,0,1-.64-.36l-.62-.42a.37.37,0,0,0-.54,0,2,2,0,0,0-.36,1h-.69q.06-1,.09-2.34t0-3.66h.69a15.82,15.82,0,0,0,.62,2.92,4.14,4.14,0,0,0,1.24,1.95,3.44,3.44,0,0,0,2.28.71,3,3,0,0,0,1.19-.26,2.29,2.29,0,0,0,1-.85,3.13,3.13,0,0,0-.54-3.77,18.78,18.78,0,0,0-2.39-1.78c-.7-.48-1.36-1-2-1.43a6.58,6.58,0,0,1-1.51-1.57,3.71,3.71,0,0,1,1.72-5.6A6.2,6.2,0,0,1,622.45,604.08Z" transform="translate(-146.18 -237.59)"/><path class="cls-2" d="M642.4,604.08a7.39,7.39,0,0,1,3.53.82,5.89,5.89,0,0,1,2.46,2.63,10.42,10.42,0,0,1,.91,4.71,10.22,10.22,0,0,1-.91,4.66,6,6,0,0,1-2.46,2.63,7.73,7.73,0,0,1-7,0,6.06,6.06,0,0,1-2.49-2.63,10.08,10.08,0,0,1-.93-4.66,10.27,10.27,0,0,1,.93-4.71,6,6,0,0,1,2.49-2.63A7.32,7.32,0,0,1,642.4,604.08Zm0,.6a3.07,3.07,0,0,0-2.67,1.77q-1.05,1.77-1.05,5.79t1.05,5.77a2.92,2.92,0,0,0,5.36,0q1-1.75,1-5.77t-1-5.79A3.07,3.07,0,0,0,642.4,604.68Z" transform="translate(-146.18 -237.59)"/><path class="cls-2" d="M669.88,604.17v12.54a3.33,3.33,0,0,0,.48,2,2,2,0,0,0,1.74.65V620q-.93-.09-1.86-.09a16.93,16.93,0,0,0-1.8.09,7.42,7.42,0,0,0-1.56.33v-3.39a5,5,0,0,1-2.07,2.65,5.48,5.48,0,0,1-2.82.8,5.18,5.18,0,0,1-1.86-.3,3.44,3.44,0,0,1-1.29-.84,3.2,3.2,0,0,1-.78-1.56,11.31,11.31,0,0,1-.21-2.37v-7.53a3.46,3.46,0,0,0-.46-2,2,2,0,0,0-1.76-.64v-.63q1,.09,1.86.09a14.5,14.5,0,0,0,1.8-.11,10,10,0,0,0,1.56-.31v11.88a10.48,10.48,0,0,0,.12,1.65,1.81,1.81,0,0,0,2.07,1.65,3.15,3.15,0,0,0,2-.68,4.51,4.51,0,0,0,1.37-1.83,6.5,6.5,0,0,0,.49-2.59v-6.48a3.46,3.46,0,0,0-.46-2,2,2,0,0,0-1.76-.64v-.63q1,.09,1.86.09a14.5,14.5,0,0,0,1.8-.11A10,10,0,0,0,669.88,604.17Z" transform="translate(-146.18 -237.59)"/><path class="cls-2" d="M683.08,596.43v20.73a2.24,2.24,0,0,0,.51,1.71,2.58,2.58,0,0,0,1.71.45V620l-1.57-.08c-.71,0-1.42,0-2.12,0s-1.41,0-2.13,0l-1.59.08v-.63a2.58,2.58,0,0,0,1.71-.45,2.24,2.24,0,0,0,.51-1.71V600a3.46,3.46,0,0,0-.46-2,2,2,0,0,0-1.76-.64v-.63q1,.09,1.86.09a14.25,14.25,0,0,0,1.77-.11A10,10,0,0,0,683.08,596.43Z" transform="translate(-146.18 -237.59)"/><path class="cls-2" d="M696.73,604.08a5.18,5.18,0,0,1,3.33,1.08q1,.78,1.2-1H702c0,.56-.07,1.22-.09,2s0,1.82,0,3.14h-.69a8.9,8.9,0,0,0-.58-2.18,4.25,4.25,0,0,0-1.28-1.74,3.34,3.34,0,0,0-2.16-.67,2.6,2.6,0,0,0-1.71.57,2.05,2.05,0,0,0-.69,1.68,2.32,2.32,0,0,0,.54,1.54,6.39,6.39,0,0,0,1.41,1.22l1.86,1.23a22.65,22.65,0,0,1,2,1.47A6.38,6.38,0,0,1,702,614a4.06,4.06,0,0,1,.54,2.13,3.66,3.66,0,0,1-.72,2.29,4.52,4.52,0,0,1-1.9,1.44,7,7,0,0,1-3.9.38,6,6,0,0,1-1.13-.33,4.53,4.53,0,0,1-.64-.36l-.62-.42a.37.37,0,0,0-.54,0,2,2,0,0,0-.36,1h-.69q.06-1,.09-2.34t0-3.66h.69a15.82,15.82,0,0,0,.62,2.92,4.14,4.14,0,0,0,1.24,1.95,3.44,3.44,0,0,0,2.28.71,3,3,0,0,0,1.19-.26,2.29,2.29,0,0,0,1-.85,3.13,3.13,0,0,0-.54-3.77,18.78,18.78,0,0,0-2.39-1.78c-.7-.48-1.36-1-2-1.43a6.58,6.58,0,0,1-1.51-1.57,3.71,3.71,0,0,1,1.72-5.6A6.2,6.2,0,0,1,696.73,604.08Z" transform="translate(-146.18 -237.59)"/><path class="cls-2" d="M712.24,616.41a2.12,2.12,0,0,1,1.11.27,2.16,2.16,0,0,1,.72.69,2.69,2.69,0,0,1,.44,1.06,5.81,5.81,0,0,1,.1,1,5,5,0,0,1-.75,2.68,5.29,5.29,0,0,1-2.37,2l-.27-.54a4.14,4.14,0,0,0,1.61-1.22,2.61,2.61,0,0,0,.67-1.66,2.24,2.24,0,0,0-.06-.75,1.79,1.79,0,0,1-1.23.45,2,2,0,0,1-1.39-.53,1.85,1.85,0,0,1-.59-1.45,1.89,1.89,0,0,1,.59-1.43A2,2,0,0,1,712.24,616.41Z" transform="translate(-146.18 -237.59)"/><path class="cls-2" d="M741.1,604.08a7.52,7.52,0,0,1,1.91.24,5.41,5.41,0,0,1,1.6.69,3.3,3.3,0,0,1,1.1,1.06,2.53,2.53,0,0,1,.37,1.34,1.73,1.73,0,0,1-.49,1.33,1.76,1.76,0,0,1-1.25.47,1.87,1.87,0,0,1-1.23-.42,1.47,1.47,0,0,1-.51-1.2,1.76,1.76,0,0,1,.41-1.19,1.72,1.72,0,0,1,1-.58,2.19,2.19,0,0,0-1-.84,3.63,3.63,0,0,0-1.53-.33,3.28,3.28,0,0,0-1.53.39,3.89,3.89,0,0,0-1.35,1.23,6.94,6.94,0,0,0-1,2.25,13.46,13.46,0,0,0-.38,3.42,11.52,11.52,0,0,0,.6,4.11,4.44,4.44,0,0,0,1.58,2.17,3.75,3.75,0,0,0,2.11.65,4.74,4.74,0,0,0,1.52-.27,4.27,4.27,0,0,0,1.51-.93,5.45,5.45,0,0,0,1.23-1.77l.57.21a6.84,6.84,0,0,1-1,2,5.66,5.66,0,0,1-1.83,1.63,5.52,5.52,0,0,1-2.78.65,6.24,6.24,0,0,1-3.37-1,6.66,6.66,0,0,1-2.42-2.73,9.45,9.45,0,0,1-.9-4.3,10,10,0,0,1,.9-4.37,7,7,0,0,1,2.51-2.91A6.61,6.61,0,0,1,741.1,604.08Z" transform="translate(-146.18 -237.59)"/><path class="cls-2" d="M757.63,596.46v11.07a5.06,5.06,0,0,1,2.15-2.7,6,6,0,0,1,2.92-.75,5.38,5.38,0,0,1,1.94.3,3.17,3.17,0,0,1,1.24.84,3.41,3.41,0,0,1,.81,1.5,9.8,9.8,0,0,1,.24,2.43v8a2.24,2.24,0,0,0,.51,1.71,2.58,2.58,0,0,0,1.71.45V620l-1.59-.08c-.72,0-1.41,0-2.07,0s-1.34,0-2,0L762,620v-.63a2,2,0,0,0,1.49-.45,2.5,2.5,0,0,0,.43-1.71v-8.79a8.25,8.25,0,0,0-.15-1.64,2.07,2.07,0,0,0-.66-1.18,2.25,2.25,0,0,0-1.53-.45,3.46,3.46,0,0,0-2.07.64,4.28,4.28,0,0,0-1.41,1.8,6.54,6.54,0,0,0-.51,2.66v7a2.49,2.49,0,0,0,.44,1.71,2,2,0,0,0,1.48.45V620l-1.45-.08c-.65,0-1.31,0-2,0s-1.38,0-2.1,0l-1.59.08v-.63a2.58,2.58,0,0,0,1.71-.45,2.24,2.24,0,0,0,.51-1.71v-17.1a3.46,3.46,0,0,0-.46-2,2,2,0,0,0-1.76-.64v-.63q1,.09,1.86.09a14.25,14.25,0,0,0,1.77-.11A10,10,0,0,0,757.63,596.46Z" transform="translate(-146.18 -237.59)"/><path class="cls-2" d="M779.14,620.16a4.46,4.46,0,0,1-2.13-.48,3.27,3.27,0,0,1-1.36-1.32,3.8,3.8,0,0,1-.47-1.92,3.57,3.57,0,0,1,.62-2.16,4.57,4.57,0,0,1,1.57-1.35,11.84,11.84,0,0,1,2-.84l2-.65a6,6,0,0,0,1.58-.75,1.31,1.31,0,0,0,.61-1.12v-1.92a3.86,3.86,0,0,0-.36-1.85,1.88,1.88,0,0,0-1-.88,3.88,3.88,0,0,0-1.4-.24,6.53,6.53,0,0,0-1.53.19,2.37,2.37,0,0,0-1.32.83,1.92,1.92,0,0,1,1,.64,1.87,1.87,0,0,1,.42,1.25,1.63,1.63,0,0,1-.51,1.27,1.84,1.84,0,0,1-1.29.47,1.55,1.55,0,0,1-1.33-.59,2.26,2.26,0,0,1-.05-2.61,4.35,4.35,0,0,1,1-.91,6.79,6.79,0,0,1,1.83-.81,8.73,8.73,0,0,1,2.49-.33,7.4,7.4,0,0,1,2.18.28,3.79,3.79,0,0,1,1.51.86,3.46,3.46,0,0,1,1,1.74,11,11,0,0,1,.24,2.49v8.31a2,2,0,0,0,.21,1.06.74.74,0,0,0,.66.32,1.39,1.39,0,0,0,.63-.15,4.41,4.41,0,0,0,.69-.45l.33.51a8.25,8.25,0,0,1-1.24.79,3.54,3.54,0,0,1-1.61.32,3.22,3.22,0,0,1-1.48-.3,1.92,1.92,0,0,1-.87-.89,3.15,3.15,0,0,1-.29-1.45,5.47,5.47,0,0,1-1.89,2A4.89,4.89,0,0,1,779.14,620.16Zm1.26-1.32a3.09,3.09,0,0,0,1.73-.53,5,5,0,0,0,1.45-1.57V610.8a2.81,2.81,0,0,1-1,.85c-.43.23-.9.47-1.41.71a13.08,13.08,0,0,0-1.47.81,3.36,3.36,0,0,0-1.61,3.09,2.7,2.7,0,0,0,.63,1.89A2.16,2.16,0,0,0,780.4,618.84Z" transform="translate(-146.18 -237.59)"/><path class="cls-2" d="M804.7,604.08a5.38,5.38,0,0,1,1.94.3,3.44,3.44,0,0,1,1.27.84,3.58,3.58,0,0,1,.78,1.5,9.8,9.8,0,0,1,.24,2.43v8a2.24,2.24,0,0,0,.51,1.71,2.58,2.58,0,0,0,1.71.45V620l-1.57-.08c-.72,0-1.41,0-2.09,0s-1.34,0-2,0L804,620v-.63a2,2,0,0,0,1.48-.45,2.44,2.44,0,0,0,.44-1.71v-8.79a8.25,8.25,0,0,0-.15-1.64,2.1,2.1,0,0,0-.64-1.18,2.28,2.28,0,0,0-1.55-.45,3.35,3.35,0,0,0-2.07.67,4.5,4.5,0,0,0-1.41,1.85,6.47,6.47,0,0,0-.51,2.61v6.93a2.44,2.44,0,0,0,.44,1.71,2,2,0,0,0,1.48.45V620l-1.44-.08c-.64,0-1.3,0-2,0s-1.38,0-2.09,0l-1.6.08v-.63a2.58,2.58,0,0,0,1.71-.45,2.24,2.24,0,0,0,.51-1.71v-9.39a3.54,3.54,0,0,0-.46-2,2.06,2.06,0,0,0-1.76-.64v-.63q1,.09,1.86.09a14.42,14.42,0,0,0,1.78-.11,9,9,0,0,0,1.55-.31v3.39a5.12,5.12,0,0,1,2.16-2.72A5.91,5.91,0,0,1,804.7,604.08Z" transform="translate(-146.18 -237.59)"/><path class="cls-2" d="M822.25,625.59a13.42,13.42,0,0,1-3.06-.33,5.68,5.68,0,0,1-2.27-1,2.17,2.17,0,0,1-.85-1.74,2.3,2.3,0,0,1,.84-1.79,6,6,0,0,1,2.31-1.15l.21.48a2,2,0,0,0-1,.88,2.61,2.61,0,0,0-.36,1.34,2.29,2.29,0,0,0,1.26,2.1,6.55,6.55,0,0,0,3.27.72,9.84,9.84,0,0,0,2.61-.35,4.6,4.6,0,0,0,2.06-1.14,2.84,2.84,0,0,0,.79-2.08,2.12,2.12,0,0,0-.69-1.61,4.21,4.21,0,0,0-2.76-.64h-2.16a10.57,10.57,0,0,1-1.9-.17,3,3,0,0,1-1.48-.66,1.87,1.87,0,0,1-.55-1.48,2.93,2.93,0,0,1,.87-2,9.35,9.35,0,0,1,3.06-1.9l.36.24a11.36,11.36,0,0,0-1.66,1.05,1.57,1.57,0,0,0-.71,1.26q0,1,1.41,1h3.66a7.84,7.84,0,0,1,2.43.36,3.89,3.89,0,0,1,1.79,1.15,3.12,3.12,0,0,1,.67,2.09,4.43,4.43,0,0,1-.9,2.67,6.29,6.29,0,0,1-2.72,2A11.63,11.63,0,0,1,822.25,625.59Zm.18-12a7.19,7.19,0,0,1-2.74-.5,4.15,4.15,0,0,1-1.93-1.54,5.56,5.56,0,0,1,0-5.4,4.17,4.17,0,0,1,1.93-1.55,7.91,7.91,0,0,1,5.48,0,4,4,0,0,1,1.92,1.55,5.49,5.49,0,0,1,0,5.4,4,4,0,0,1-1.92,1.54A7.16,7.16,0,0,1,822.43,613.56Zm0-.54a2,2,0,0,0,1.7-.9,9.23,9.23,0,0,0,0-6.6,2,2,0,0,0-3.38,0,9,9,0,0,0,0,6.6A2,2,0,0,0,822.43,613Zm4.38-6.45-.57-.21a4.54,4.54,0,0,1,1.46-1.83,3.42,3.42,0,0,1,2.14-.78,1.81,1.81,0,0,1,1.29.45,1.72,1.72,0,0,1,.48,1.32,1.58,1.58,0,0,1-.49,1.32,1.63,1.63,0,0,1-1,.39,1.31,1.31,0,0,1-.87-.33,1.44,1.44,0,0,1-.45-1,3.94,3.94,0,0,1,.42-1.8l.36.12a4.91,4.91,0,0,0-1.77,1A5.83,5.83,0,0,0,826.81,606.57Z" transform="translate(-146.18 -237.59)"/><path class="cls-2" d="M842.32,604.17v13a2.24,2.24,0,0,0,.51,1.71,2.58,2.58,0,0,0,1.71.45V620l-1.56-.08c-.7,0-1.41,0-2.13,0s-1.41,0-2.11,0l-1.61.08v-.63a2.58,2.58,0,0,0,1.71-.45,2.24,2.24,0,0,0,.51-1.71v-9.39a3.37,3.37,0,0,0-.47-2,2,2,0,0,0-1.75-.64v-.63q1,.09,1.86.09a14.71,14.71,0,0,0,1.79-.11A9.31,9.31,0,0,0,842.32,604.17Zm-1.68-7.23a2,2,0,0,1,1.47.58,2,2,0,0,1,0,2.82,2.13,2.13,0,0,1-2.94,0,2,2,0,0,1,0-2.82A2,2,0,0,1,840.64,596.94Z" transform="translate(-146.18 -237.59)"/><path class="cls-2" d="M860.8,604.08a5.38,5.38,0,0,1,1.94.3,3.44,3.44,0,0,1,1.27.84,3.58,3.58,0,0,1,.78,1.5,9.8,9.8,0,0,1,.24,2.43v8a2.24,2.24,0,0,0,.51,1.71,2.58,2.58,0,0,0,1.71.45V620l-1.58-.08c-.71,0-1.4,0-2.08,0s-1.34,0-2,0l-1.47.08v-.63a2,2,0,0,0,1.49-.45,2.5,2.5,0,0,0,.43-1.71v-8.79a8.25,8.25,0,0,0-.15-1.64,2.17,2.17,0,0,0-.64-1.18,2.26,2.26,0,0,0-1.55-.45,3.35,3.35,0,0,0-2.07.67,4.5,4.5,0,0,0-1.41,1.85,6.47,6.47,0,0,0-.51,2.61v6.93a2.49,2.49,0,0,0,.44,1.71,2,2,0,0,0,1.48.45V620l-1.44-.08c-.64,0-1.3,0-2,0s-1.38,0-2.08,0l-1.61.08v-.63a2.58,2.58,0,0,0,1.71-.45,2.24,2.24,0,0,0,.51-1.71v-9.39a3.37,3.37,0,0,0-.47-2,2,2,0,0,0-1.75-.64v-.63q1,.09,1.86.09a14.71,14.71,0,0,0,1.79-.11,9.31,9.31,0,0,0,1.54-.31v3.39a5.12,5.12,0,0,1,2.16-2.72A5.91,5.91,0,0,1,860.8,604.08Z" transform="translate(-146.18 -237.59)"/><path class="cls-2" d="M878.35,625.59a13.42,13.42,0,0,1-3.06-.33,5.61,5.61,0,0,1-2.27-1,2.17,2.17,0,0,1-.85-1.74,2.3,2.3,0,0,1,.84-1.79,6,6,0,0,1,2.31-1.15l.21.48a2,2,0,0,0-1,.88,2.61,2.61,0,0,0-.36,1.34,2.29,2.29,0,0,0,1.26,2.1,6.55,6.55,0,0,0,3.27.72,9.84,9.84,0,0,0,2.61-.35,4.51,4.51,0,0,0,2.05-1.14,2.81,2.81,0,0,0,.8-2.08,2.12,2.12,0,0,0-.69-1.61,4.21,4.21,0,0,0-2.76-.64h-2.16a10.57,10.57,0,0,1-1.9-.17,2.94,2.94,0,0,1-1.48-.66,1.87,1.87,0,0,1-.55-1.48,2.93,2.93,0,0,1,.87-2,9.35,9.35,0,0,1,3.06-1.9l.36.24a12.06,12.06,0,0,0-1.67,1.05,1.56,1.56,0,0,0-.7,1.26q0,1,1.41,1h3.66a7.84,7.84,0,0,1,2.43.36,3.81,3.81,0,0,1,1.78,1.15,3.13,3.13,0,0,1,.68,2.09,4.43,4.43,0,0,1-.9,2.67,6.29,6.29,0,0,1-2.72,2A11.63,11.63,0,0,1,878.35,625.59Zm.18-12a7.16,7.16,0,0,1-2.74-.5,4.1,4.1,0,0,1-1.93-1.54,5.56,5.56,0,0,1,0-5.4,4.12,4.12,0,0,1,1.93-1.55,7.91,7.91,0,0,1,5.48,0,4.14,4.14,0,0,1,1.92,1.55,5.49,5.49,0,0,1,0,5.4,4.12,4.12,0,0,1-1.92,1.54A7.19,7.19,0,0,1,878.53,613.56Zm0-.54a1.94,1.94,0,0,0,1.69-.9,9.09,9.09,0,0,0,0-6.6,2,2,0,0,0-3.37,0,9,9,0,0,0,0,6.6A2,2,0,0,0,878.53,613Zm4.38-6.45-.57-.21a4.59,4.59,0,0,1,1.45-1.83,3.45,3.45,0,0,1,2.15-.78,1.81,1.81,0,0,1,1.29.45,1.72,1.72,0,0,1,.48,1.32,1.59,1.59,0,0,1-.5,1.32,1.6,1.6,0,0,1-1,.39,1.31,1.31,0,0,1-.87-.33,1.44,1.44,0,0,1-.45-1,3.94,3.94,0,0,1,.42-1.8l.36.12a4.91,4.91,0,0,0-1.77,1A5.83,5.83,0,0,0,882.91,606.57Z" transform="translate(-146.18 -237.59)"/><path class="cls-2" d="M909.76,599.52v5h4.29v.6h-4.29v11.7a2.81,2.81,0,0,0,.48,1.86,1.71,1.71,0,0,0,1.35.54,2,2,0,0,0,1.47-.68,5.85,5.85,0,0,0,1.11-2.29l.6.18a6.49,6.49,0,0,1-1.23,2.82,3.27,3.27,0,0,1-2.73,1.14,4.76,4.76,0,0,1-1.67-.26,3.6,3.6,0,0,1-1.18-.73,3.74,3.74,0,0,1-.92-1.65,10.82,10.82,0,0,1-.25-2.55V605.1H904v-.6h2.82V600a15.42,15.42,0,0,0,1.59-.14A5.38,5.38,0,0,0,909.76,599.52Z" transform="translate(-146.18 -237.59)"/><path class="cls-2" d="M924.79,596.46v11.07a5,5,0,0,1,2.14-2.7,6,6,0,0,1,2.93-.75,5.28,5.28,0,0,1,1.93.3,3.21,3.21,0,0,1,1.25.84,3.41,3.41,0,0,1,.81,1.5,9.8,9.8,0,0,1,.24,2.43v8a2.24,2.24,0,0,0,.51,1.71,2.58,2.58,0,0,0,1.71.45V620l-1.59-.08c-.72,0-1.41,0-2.07,0s-1.35,0-2,0l-1.46.08v-.63a2,2,0,0,0,1.48-.45,2.49,2.49,0,0,0,.44-1.71v-8.79a8.25,8.25,0,0,0-.15-1.64,2.07,2.07,0,0,0-.66-1.18,2.25,2.25,0,0,0-1.53-.45,3.46,3.46,0,0,0-2.07.64,4.28,4.28,0,0,0-1.41,1.8,6.54,6.54,0,0,0-.51,2.66v7a2.5,2.5,0,0,0,.43,1.71,2,2,0,0,0,1.49.45V620l-1.46-.08c-.65,0-1.3,0-2,0s-1.38,0-2.1,0l-1.59.08v-.63a2.58,2.58,0,0,0,1.71-.45,2.24,2.24,0,0,0,.51-1.71v-17.1a3.46,3.46,0,0,0-.46-2,2.06,2.06,0,0,0-1.76-.64v-.63q1,.09,1.86.09a14.25,14.25,0,0,0,1.77-.11A10,10,0,0,0,924.79,596.46Z" transform="translate(-146.18 -237.59)"/><path class="cls-2" d="M949.45,604.08a5.36,5.36,0,0,1,4.12,1.59q1.48,1.59,1.49,5H944.59l0-.57H952a10.3,10.3,0,0,0-.23-2.72,4.77,4.77,0,0,0-.9-2,2,2,0,0,0-1.6-.75A2.87,2.87,0,0,0,947,606a8.58,8.58,0,0,0-1.21,4.4l.09.12a8.26,8.26,0,0,0-.08.94c0,.35,0,.7,0,1a8.48,8.48,0,0,0,.64,3.48,5.16,5.16,0,0,0,1.68,2.17,3.68,3.68,0,0,0,2.15.74,5,5,0,0,0,1.63-.27,4.22,4.22,0,0,0,1.49-.9,5.41,5.41,0,0,0,1.2-1.71l.6.21a6.31,6.31,0,0,1-1.1,2,5.92,5.92,0,0,1-1.9,1.56,5.65,5.65,0,0,1-2.67.6,6.82,6.82,0,0,1-3.71-1,6.41,6.41,0,0,1-2.38-2.73,9.36,9.36,0,0,1-.84-4.09,11,11,0,0,1,.87-4.58,6.65,6.65,0,0,1,2.41-2.91A6.49,6.49,0,0,1,949.45,604.08Z" transform="translate(-146.18 -237.59)"/><path class="cls-2" d="M990.07,598.71c-.08.8-.14,1.57-.17,2.32s0,1.33,0,1.73,0,.92,0,1.33,0,.78.06,1.1h-.69a17.25,17.25,0,0,0-.66-3.42,3.19,3.19,0,0,0-1.35-1.82,5.41,5.41,0,0,0-2.73-.55h-1.47v17.07a5.11,5.11,0,0,0,.24,1.8,1.35,1.35,0,0,0,.9.81,8,8,0,0,0,1.92.27v.6c-.52,0-1.2-.07-2-.08h-5.21c-.83,0-1.49,0-2,.08v-.6a8.08,8.08,0,0,0,2-.27,1.3,1.3,0,0,0,.88-.81,5.41,5.41,0,0,0,.23-1.8V599.4h-1.44a5.41,5.41,0,0,0-2.73.55,3.19,3.19,0,0,0-1.35,1.82,18.49,18.49,0,0,0-.69,3.42H973c0-.32.06-.69.07-1.1s0-.85,0-1.33,0-1,0-1.73-.08-1.52-.16-2.32l2.8.06,3,0h5.54l3,0Z" transform="translate(-146.18 -237.59)"/><path class="cls-2" d="M1002.37,604.08a5.36,5.36,0,0,1,4.12,1.59q1.49,1.59,1.49,5H997.51l0-.57H1005a10.3,10.3,0,0,0-.23-2.72,4.77,4.77,0,0,0-.9-2,2,2,0,0,0-1.6-.75,2.87,2.87,0,0,0-2.33,1.36,8.58,8.58,0,0,0-1.21,4.4l.09.12a8.26,8.26,0,0,0-.08.94c0,.35,0,.7,0,1a8.48,8.48,0,0,0,.64,3.48,5.16,5.16,0,0,0,1.68,2.17,3.68,3.68,0,0,0,2.15.74,5,5,0,0,0,1.63-.27,4.22,4.22,0,0,0,1.49-.9,5.41,5.41,0,0,0,1.2-1.71l.6.21a6.31,6.31,0,0,1-1.1,2,5.92,5.92,0,0,1-1.9,1.56,5.65,5.65,0,0,1-2.67.6,6.82,6.82,0,0,1-3.71-1,6.41,6.41,0,0,1-2.38-2.73,9.36,9.36,0,0,1-.84-4.09,11,11,0,0,1,.87-4.58,6.65,6.65,0,0,1,2.41-2.91A6.49,6.49,0,0,1,1002.37,604.08Z" transform="translate(-146.18 -237.59)"/><path class="cls-2" d="M1022.23,604.08a7.44,7.44,0,0,1,1.9.24,5.48,5.48,0,0,1,1.61.69,3.26,3.26,0,0,1,1.09,1.06,2.54,2.54,0,0,1,.38,1.34,1.67,1.67,0,0,1-1.74,1.8,1.87,1.87,0,0,1-1.23-.42,1.47,1.47,0,0,1-.51-1.2,1.72,1.72,0,0,1,1.38-1.77,2.19,2.19,0,0,0-1-.84,3.63,3.63,0,0,0-1.53-.33,3.28,3.28,0,0,0-1.53.39,3.89,3.89,0,0,0-1.35,1.23,6.94,6.94,0,0,0-1,2.25,13.5,13.5,0,0,0-.37,3.42,11.52,11.52,0,0,0,.6,4.11,4.43,4.43,0,0,0,1.57,2.17,3.78,3.78,0,0,0,2.12.65,4.68,4.68,0,0,0,1.51-.27,4.31,4.31,0,0,0,1.52-.93,5.45,5.45,0,0,0,1.23-1.77l.57.21a6.88,6.88,0,0,1-1,2,5.66,5.66,0,0,1-1.83,1.63,5.48,5.48,0,0,1-2.77.65,6.27,6.27,0,0,1-3.38-1,6.64,6.64,0,0,1-2.41-2.73,9.45,9.45,0,0,1-.9-4.3,10,10,0,0,1,.9-4.37,6.93,6.93,0,0,1,2.5-2.91A6.64,6.64,0,0,1,1022.23,604.08Z" transform="translate(-146.18 -237.59)"/><path class="cls-2" d="M1038.76,596.46v11.07a5,5,0,0,1,2.14-2.7,6,6,0,0,1,2.93-.75,5.32,5.32,0,0,1,1.93.3,3.21,3.21,0,0,1,1.25.84,3.41,3.41,0,0,1,.81,1.5,9.8,9.8,0,0,1,.24,2.43v8a2.24,2.24,0,0,0,.51,1.71,2.58,2.58,0,0,0,1.71.45V620l-1.59-.08c-.72,0-1.41,0-2.07,0s-1.35,0-2,0l-1.45.08v-.63a2,2,0,0,0,1.48-.45,2.49,2.49,0,0,0,.44-1.71v-8.79a8.25,8.25,0,0,0-.15-1.64,2.07,2.07,0,0,0-.66-1.18,2.25,2.25,0,0,0-1.53-.45,3.46,3.46,0,0,0-2.07.64,4.28,4.28,0,0,0-1.41,1.8,6.54,6.54,0,0,0-.51,2.66v7a2.5,2.5,0,0,0,.43,1.71,2,2,0,0,0,1.49.45V620l-1.46-.08c-.65,0-1.3,0-2,0s-1.38,0-2.1,0l-1.59.08v-.63a2.58,2.58,0,0,0,1.71-.45,2.24,2.24,0,0,0,.51-1.71v-17.1a3.45,3.45,0,0,0-.47-2,2,2,0,0,0-1.75-.64v-.63q1,.09,1.86.09a14.25,14.25,0,0,0,1.77-.11A10,10,0,0,0,1038.76,596.46Z" transform="translate(-146.18 -237.59)"/><path class="cls-2" d="M1073.5,625.59a13.42,13.42,0,0,1-3.06-.33,5.61,5.61,0,0,1-2.27-1,2.14,2.14,0,0,1-.85-1.74,2.3,2.3,0,0,1,.84-1.79,6,6,0,0,1,2.31-1.15l.21.48a2,2,0,0,0-1,.88,2.61,2.61,0,0,0-.36,1.34,2.29,2.29,0,0,0,1.26,2.1,6.55,6.55,0,0,0,3.27.72,9.84,9.84,0,0,0,2.61-.35,4.51,4.51,0,0,0,2-1.14,2.81,2.81,0,0,0,.8-2.08,2.12,2.12,0,0,0-.69-1.61,4.21,4.21,0,0,0-2.76-.64h-2.16a10.77,10.77,0,0,1-1.91-.17,2.94,2.94,0,0,1-1.47-.66,1.87,1.87,0,0,1-.55-1.48,2.93,2.93,0,0,1,.87-2,9.35,9.35,0,0,1,3.06-1.9l.36.24a12.06,12.06,0,0,0-1.67,1.05,1.56,1.56,0,0,0-.7,1.26q0,1,1.41,1h3.66a7.84,7.84,0,0,1,2.43.36,3.81,3.81,0,0,1,1.78,1.15,3.13,3.13,0,0,1,.68,2.09,4.43,4.43,0,0,1-.9,2.67,6.29,6.29,0,0,1-2.72,2A11.63,11.63,0,0,1,1073.5,625.59Zm.18-12a7.25,7.25,0,0,1-2.75-.5,4.12,4.12,0,0,1-1.92-1.54,5.56,5.56,0,0,1,0-5.4,4.14,4.14,0,0,1,1.92-1.55,7.93,7.93,0,0,1,5.49,0,4.14,4.14,0,0,1,1.92,1.55,5.49,5.49,0,0,1,0,5.4,4.12,4.12,0,0,1-1.92,1.54A7.19,7.19,0,0,1,1073.68,613.56Zm0-.54a1.94,1.94,0,0,0,1.69-.9,9.09,9.09,0,0,0,0-6.6,2,2,0,0,0-3.37,0,9,9,0,0,0,0,6.6A2,2,0,0,0,1073.68,613Zm4.38-6.45-.57-.21a4.59,4.59,0,0,1,1.45-1.83,3.45,3.45,0,0,1,2.15-.78,1.81,1.81,0,0,1,1.29.45,1.72,1.72,0,0,1,.48,1.32,1.59,1.59,0,0,1-.5,1.32,1.6,1.6,0,0,1-1,.39,1.31,1.31,0,0,1-.87-.33,1.44,1.44,0,0,1-.45-1,3.94,3.94,0,0,1,.42-1.8l.36.12a4.91,4.91,0,0,0-1.77,1A5.83,5.83,0,0,0,1078.06,606.57Z" transform="translate(-146.18 -237.59)"/><path class="cls-2" d="M1092.31,620.16a4.46,4.46,0,0,1-2.13-.48,3.29,3.29,0,0,1-1.37-1.32,3.9,3.9,0,0,1-.46-1.92,3.56,3.56,0,0,1,.61-2.16,4.6,4.6,0,0,1,1.58-1.35,11.84,11.84,0,0,1,2-.84l2-.65a5.89,5.89,0,0,0,1.57-.75,1.32,1.32,0,0,0,.62-1.12v-1.92a3.86,3.86,0,0,0-.36-1.85,1.9,1.9,0,0,0-1-.88,3.79,3.79,0,0,0-1.39-.24,6.53,6.53,0,0,0-1.53.19,2.37,2.37,0,0,0-1.32.83,1.92,1.92,0,0,1,1,.64,1.87,1.87,0,0,1,.42,1.25,1.63,1.63,0,0,1-.51,1.27,1.84,1.84,0,0,1-1.29.47,1.57,1.57,0,0,1-1.34-.59,2.12,2.12,0,0,1-.43-1.3,2.06,2.06,0,0,1,.39-1.31,4.35,4.35,0,0,1,1-.91,6.79,6.79,0,0,1,1.83-.81,8.73,8.73,0,0,1,2.49-.33,7.33,7.33,0,0,1,2.17.28,3.83,3.83,0,0,1,1.52.86,3.46,3.46,0,0,1,1,1.74,11,11,0,0,1,.24,2.49v8.31a2,2,0,0,0,.21,1.06.74.74,0,0,0,.66.32,1.39,1.39,0,0,0,.63-.15,4.41,4.41,0,0,0,.69-.45l.33.51a8.32,8.32,0,0,1-1.25.79,3.5,3.5,0,0,1-1.6.32,3.27,3.27,0,0,1-1.49-.3,1.92,1.92,0,0,1-.87-.89,3.29,3.29,0,0,1-.28-1.45,5.47,5.47,0,0,1-1.89,2A4.89,4.89,0,0,1,1092.31,620.16Zm1.26-1.32a3.06,3.06,0,0,0,1.72-.53,5.07,5.07,0,0,0,1.46-1.57V610.8a2.85,2.85,0,0,1-1,.85c-.43.23-.9.47-1.41.71a13.08,13.08,0,0,0-1.47.81,3.38,3.38,0,0,0-1.6,3.09,2.7,2.7,0,0,0,.63,1.89A2.16,2.16,0,0,0,1093.57,618.84Z" transform="translate(-146.18 -237.59)"/><path class="cls-2" d="M1117.69,604.08a5.18,5.18,0,0,1,1.86.3,3.44,3.44,0,0,1,1.29.84,3.33,3.33,0,0,1,.75,1.54,11.32,11.32,0,0,1,.21,2.39v8a2.24,2.24,0,0,0,.51,1.71,2.52,2.52,0,0,0,1.68.45V620l-1.56-.08c-.7,0-1.39,0-2.07,0s-1.32,0-2,0l-1.45.08v-.63a2,2,0,0,0,1.47-.45,2.56,2.56,0,0,0,.42-1.71v-8.79a10.26,10.26,0,0,0-.12-1.64,2.09,2.09,0,0,0-.57-1.18,2,2,0,0,0-1.47-.45,3.14,3.14,0,0,0-2,.67,4.62,4.62,0,0,0-1.38,1.85,6.47,6.47,0,0,0-.51,2.61v6.93a2.5,2.5,0,0,0,.43,1.71,2,2,0,0,0,1.46.45V620l-1.43-.08c-.63,0-1.28,0-2,0s-1.38,0-2.09,0l-1.6.08v-.63a2.58,2.58,0,0,0,1.71-.45,2.24,2.24,0,0,0,.51-1.71v-9.39a3.45,3.45,0,0,0-.47-2,2,2,0,0,0-1.75-.64v-.63q1,.09,1.86.09a14.54,14.54,0,0,0,1.78-.11,9.23,9.23,0,0,0,1.55-.31v3.39a5.1,5.1,0,0,1,4.89-3.48Zm9,0a5.18,5.18,0,0,1,1.86.3,3.44,3.44,0,0,1,1.29.84,3.33,3.33,0,0,1,.75,1.54,11.32,11.32,0,0,1,.21,2.39v8a2.24,2.24,0,0,0,.51,1.71,2.58,2.58,0,0,0,1.71.45V620l-1.58-.08c-.71,0-1.4,0-2.08,0s-1.32,0-2,0L1126,620v-.63a2,2,0,0,0,1.47-.45,2.56,2.56,0,0,0,.42-1.71v-8.79a10.26,10.26,0,0,0-.12-1.64,1.82,1.82,0,0,0-2.07-1.63,3.14,3.14,0,0,0-2,.67,4.62,4.62,0,0,0-1.38,1.83,6.38,6.38,0,0,0-.51,2.6l-.09-2.61a5.12,5.12,0,0,1,2.17-2.78A5.92,5.92,0,0,1,1126.72,604.08Z" transform="translate(-146.18 -237.59)"/><path class="cls-2" d="M1146.22,604.08a5.36,5.36,0,0,1,4.12,1.59q1.48,1.59,1.49,5h-10.47l0-.57h7.47a10.3,10.3,0,0,0-.23-2.72,4.77,4.77,0,0,0-.9-2,2,2,0,0,0-1.6-.75,2.87,2.87,0,0,0-2.33,1.36,8.58,8.58,0,0,0-1.21,4.4l.09.12a8.26,8.26,0,0,0-.08.94c0,.35,0,.7,0,1a8.48,8.48,0,0,0,.64,3.48,5.16,5.16,0,0,0,1.68,2.17,3.68,3.68,0,0,0,2.15.74,5,5,0,0,0,1.63-.27,4.22,4.22,0,0,0,1.49-.9,5.41,5.41,0,0,0,1.2-1.71l.6.21a6.31,6.31,0,0,1-1.1,2,5.92,5.92,0,0,1-1.9,1.56,5.65,5.65,0,0,1-2.67.6,6.82,6.82,0,0,1-3.71-1,6.41,6.41,0,0,1-2.38-2.73,9.36,9.36,0,0,1-.84-4.09,11,11,0,0,1,.87-4.58,6.65,6.65,0,0,1,2.41-2.91A6.49,6.49,0,0,1,1146.22,604.08Z" transform="translate(-146.18 -237.59)"/><path class="cls-2" d="M1161.52,616.41a2,2,0,0,1,1.42.57,2,2,0,0,1,0,2.8,1.93,1.93,0,0,1-1.42.59,2,2,0,0,1-1.46-.59,2,2,0,0,1,0-2.8A2,2,0,0,1,1161.52,616.41Z" transform="translate(-146.18 -237.59)"/><text class="cls-3" transform="translate(744.32 74.49) scale(0.95 1)">&lt;<tspan class="cls-4" x="69.43" y="0">/</tspan><tspan class="cls-5" x="117.58" y="0">&gt;</tspan></text></svg>